<?xml version="1.0" encoding="UTF-8"?>
<svg width="15px" height="24px" viewBox="0 0 15 24" version="1.1" xmlns="http://www.w3.org/2000/svg" xmlns:xlink="http://www.w3.org/1999/xlink">
    <title>Group 3</title>
    <g id="Symbols" stroke="none" stroke-width="1" fill="none" fill-rule="evenodd">
        <g id="Locator_Icons_Set" transform="translate(-61.000000, 0.000000)">
            <g id="Group-3" transform="translate(61.000000, 0.000000)">
                <g id="10691133351640236322" fill-rule="nonzero">
                    <path d="M14.6176626,7.49623724 C14.6176626,8.71812391 14.3103169,9.86879633 13.7668397,10.8732921 L7.83356792,23.414497 C7.69488753,23.6956059 7.29758695,23.6956059 7.15890656,23.414497 L1.20314608,10.8320628 C0.674661352,9.83506326 0.374811862,8.69188708 0.374811862,7.48499288 C0.374811862,7.40253427 0.374811862,7.32007567 0.378559981,7.23386894 C0.51724037,3.43327666 3.73312615,0.356071269 7.53371843,0.374726715 C11.4505024,0.393552455 14.6176626,3.57570516 14.6176626,7.49623724 Z M7.49623724,12.7436033 C10.3935329,12.7436033 12.7436033,10.3935329 12.7436033,7.49623724 C12.7436033,4.59894155 10.3935329,2.24887117 7.49623724,2.24887117 C4.59894155,2.24887117 2.24887117,4.59894155 2.24887117,7.49623724 C2.24887117,10.3935329 4.59894155,12.7436033 7.49623724,12.7436033 Z" id="Shape" fill="#4293D2"></path>
                    <path d="M11.228239,10.6283057 C10.8797576,11.043035 10.4683548,11.3947491 10.0060712,11.673328 C9.82892572,11.7801963 9.77181376,12.0104245 9.87868199,12.1879447 C9.94895921,12.3046986 10.0730219,12.3691194 10.2000363,12.3691194 C10.2659095,12.3691194 10.3325323,12.3519249 10.3932987,12.3153339 C10.9262343,11.9939796 11.4002307,11.5887611 11.8021228,11.1107354 C11.9353684,10.9522369 11.9148474,10.7157774 11.7563489,10.5825787 C11.597944,10.4497079 11.3618594,10.470182 11.228239,10.6283057 Z" id="Path" fill="#3D6B9A"></path>
                    <path d="M7.49623724,1.87405931 C4.39598092,1.87405931 1.87405931,4.39598092 1.87405931,7.49623724 C1.87405931,10.5964936 4.39598092,13.1184152 7.49623724,13.1184152 C8.04196331,13.1184152 8.58262942,13.0400795 9.10235292,12.8856102 C9.3007221,12.8262962 9.41382158,12.6176665 9.35492926,12.4192973 C9.29561529,12.2209282 9.08698563,12.1096559 8.88861646,12.166721 C8.43804575,12.3006694 7.96990573,12.3687446 7.49623724,12.3687446 C4.80958581,12.3687446 2.62368303,10.1828418 2.62368303,7.49619039 C2.62368303,4.80953896 4.80958581,2.62363618 7.49623724,2.62363618 C10.1828887,2.62363618 12.3687914,4.80953896 12.3687914,7.49619039 C12.3687914,8.22716722 12.2110425,8.92956465 11.8999018,9.58398616 C11.8109777,9.77101728 11.8907658,9.99468626 12.0774221,10.0836104 C12.264828,10.1718317 12.4884501,10.0927464 12.5770463,9.90609011 C12.9361161,9.15023514 13.1184152,8.33947023 13.1184152,7.49614354 C13.1184152,4.39598092 10.5964936,1.87405931 7.49623724,1.87405931 Z" id="Path" fill="#3D6B9A"></path>
                    <path d="M7.53540508,0 L7.49918888,0 C3.50837958,0 0.149362527,3.23129991 0.00402922752,7.21803314 C0,7.30990889 0,7.39738061 0,7.48485233 C0,8.71362617 0.301629846,9.93176472 0.864175599,10.9924823 L6.82274718,23.5801639 C6.95051117,23.8392994 7.20852228,24 7.49623724,24 C7.7839522,24 8.04196331,23.8392994 8.17267895,23.5746822 L14.1015935,11.0422854 C14.6846602,9.9610469 14.9925213,8.7352247 14.9925213,7.49619039 C14.9925213,3.3824428 11.6473723,0.0197713257 7.53540508,0 Z M13.4372395,10.6949285 C13.4343347,10.700785 13.4310083,10.7066414 13.4281035,10.7128726 L7.49773649,23.2540775 L1.53438606,10.6565103 C1.02084696,9.68837127 0.749623724,8.59139065 0.749623724,7.48489918 C0.749623724,7.40768794 0.749623724,7.33042984 0.752903328,7.24736216 C0.883946925,3.65774211 3.90694515,0.749623724 7.49914203,0.749623724 L7.53170381,0.749623724 C11.2322213,0.76719303 14.2428039,3.79389252 14.2428039,7.49623724 C14.2428039,8.61444158 13.9643187,9.72055824 13.4372395,10.6949285 Z" id="Shape" fill="#3D6B9A"></path>
                </g>
                <g id="2177044471543238929" transform="translate(3.600000, 3.600000)" fill="#3D6B9A">
                    <polygon id="Path" points="5.16167192 2.46845426 7.88643533 2.86671924 5.9148265 4.78706625 6.38012618 7.5 3.94321767 6.21845426 1.50630915 7.5 1.97160883 4.78706625 0 2.86671924 2.72476341 2.46845426 3.94321767 0"></polygon>
                </g>
            </g>
        </g>
    </g>
</svg>